<svg width="319" height="257" viewBox="0 0 319 257" fill="none" xmlns="http://www.w3.org/2000/svg">
<path d="M137.47 39.1C185.57 44.48 206.68 2.78 254.35 8.24C296.89 13.11 326.23 43.42 316.3 84.24C307.48 120.48 265.49 131.85 250.56 165.8C234.73 201.8 222.46 240.59 174.66 253.12C80.81 277.72 35.22 162.24 28.83 95.91C26.38 70.45 22.1 9.58 55.34 1.7C88.79 -6.24 108 35.8 137.47 39.1Z" fill="#606060"/>
<path opacity="0.9" d="M137.47 39.1C185.57 44.48 206.68 2.78 254.35 8.24C296.89 13.11 326.23 43.42 316.3 84.24C307.48 120.48 265.49 131.85 250.56 165.8C234.73 201.8 222.46 240.59 174.66 253.12C80.81 277.72 35.22 162.24 28.83 95.91C26.38 70.45 22.1 9.58 55.34 1.7C88.79 -6.24 108 35.8 137.47 39.1Z" fill="white"/>
<path d="M1.11862 114.359L0.121201 114.431L1.44963 132.873L2.44704 132.801L1.11862 114.359Z" fill="#606060"/>
<path d="M3.12472 142.322L2.1273 142.394L2.62735 149.336L3.62476 149.264L3.12472 142.322Z" fill="#606060"/>
<path d="M234.71 227.16H20.55C18.1661 227.117 15.8825 226.193 14.1394 224.566C12.3963 222.94 11.3172 220.725 11.11 218.35L0.589989 72.22C0.492143 71.093 0.631444 69.958 0.998909 68.8882C1.36638 67.8183 1.95386 66.8373 2.72353 66.0082C3.49319 65.1792 4.42797 64.5206 5.46765 64.0748C6.50733 63.629 7.62886 63.406 8.75999 63.42H222.92C225.302 63.4626 227.585 64.3851 229.327 66.0098C231.07 67.6345 232.15 69.8465 232.36 72.22L242.88 218.35C242.978 219.477 242.838 220.613 242.471 221.683C242.104 222.754 241.516 223.735 240.747 224.565C239.977 225.395 239.043 226.054 238.003 226.501C236.963 226.948 235.842 227.173 234.71 227.16V227.16Z" fill="#606060"/>
<path d="M235.53 227.16H21.37C18.9861 227.117 16.7025 226.193 14.9594 224.566C13.2163 222.94 12.1372 220.725 11.93 218.35L1.41 72.22C1.31215 71.093 1.45144 69.958 1.81891 68.8882C2.18638 67.8183 2.77386 66.8373 3.54353 66.0082C4.31319 65.1792 5.24797 64.5206 6.28765 64.0748C7.32733 63.629 8.44886 63.406 9.58 63.42H223.74C226.122 63.4626 228.405 64.3851 230.147 66.0098C231.89 67.6345 232.97 69.8465 233.18 72.22L243.7 218.35C243.799 219.478 243.661 220.614 243.294 221.685C242.928 222.756 242.34 223.738 241.57 224.568C240.801 225.399 239.865 226.058 238.825 226.504C237.784 226.951 236.662 227.174 235.53 227.16V227.16Z" fill="#606060"/>
<path opacity="0.5" d="M235.53 227.16H21.37C18.9861 227.117 16.7025 226.193 14.9594 224.566C13.2163 222.94 12.1372 220.725 11.93 218.35L1.41 72.22C1.31215 71.093 1.45144 69.958 1.81891 68.8882C2.18638 67.8183 2.77386 66.8373 3.54353 66.0082C4.31319 65.1792 5.24797 64.5206 6.28765 64.0748C7.32733 63.629 8.44886 63.406 9.58 63.42H223.74C226.122 63.4626 228.405 64.3851 230.147 66.0098C231.89 67.6345 232.97 69.8465 233.18 72.22L243.7 218.35C243.799 219.478 243.661 220.614 243.294 221.685C242.928 222.756 242.34 223.738 241.57 224.568C240.801 225.399 239.865 226.058 238.825 226.504C237.784 226.951 236.662 227.174 235.53 227.16V227.16Z" fill="white"/>
<path d="M224.06 67.82H9.9H9.18C3.71 68.27 4.83 76.6 10.35 76.6H224.87C230.4 76.6 230.32 68.27 224.78 67.82H224.06Z" fill="#606060"/>
<path d="M15.48 72.22C15.501 72.4778 15.4678 72.7371 15.3823 72.9813C15.2969 73.2254 15.1612 73.449 14.9841 73.6374C14.8069 73.8259 14.5922 73.9751 14.3538 74.0755C14.1154 74.1758 13.8586 74.2251 13.6 74.22C13.0565 74.2124 12.5351 74.0038 12.1362 73.6345C11.7374 73.2652 11.4894 72.7613 11.44 72.22C11.4191 71.9631 11.4521 71.7046 11.5369 71.4611C11.6217 71.2177 11.7565 70.9946 11.9326 70.8063C12.1086 70.618 12.3221 70.4686 12.5593 70.3676C12.7965 70.2666 13.0522 70.2164 13.31 70.22C13.8552 70.2252 14.3791 70.4327 14.7801 70.8022C15.181 71.1717 15.4305 71.677 15.48 72.22Z" fill="#FAFAFA"/>
<path d="M22.35 72.22C22.371 72.4778 22.3377 72.7371 22.2523 72.9813C22.1669 73.2254 22.0312 73.449 21.8541 73.6374C21.6769 73.8259 21.4622 73.9751 21.2238 74.0755C20.9854 74.1758 20.7286 74.2251 20.47 74.22C19.9265 74.2124 19.4051 74.0038 19.0062 73.6345C18.6074 73.2652 18.3594 72.7613 18.31 72.22C18.2891 71.9631 18.3221 71.7046 18.4069 71.4611C18.4917 71.2177 18.6265 70.9946 18.8026 70.8063C18.9786 70.618 19.1921 70.4686 19.4293 70.3676C19.6665 70.2666 19.9222 70.2164 20.18 70.22C20.7252 70.2252 21.2491 70.4327 21.6501 70.8022C22.051 71.1717 22.3005 71.677 22.35 72.22Z" fill="#FAFAFA"/>
<path d="M29.21 72.22C29.2309 72.477 29.1979 72.7354 29.1131 72.9789C29.0283 73.2223 28.8935 73.4454 28.7174 73.6337C28.5414 73.822 28.3279 73.9714 28.0907 74.0724C27.8535 74.1734 27.5978 74.2236 27.34 74.22C26.7958 74.2146 26.2732 74.0068 25.8739 73.637C25.4745 73.2673 25.2272 72.7622 25.18 72.22C25.1575 71.9627 25.1894 71.7036 25.2736 71.4594C25.3579 71.2153 25.4926 70.9916 25.669 70.803C25.8454 70.6143 26.0595 70.4649 26.2974 70.3645C26.5354 70.264 26.7918 70.2148 27.05 70.22C27.5935 70.2276 28.1149 70.4362 28.5138 70.8055C28.9126 71.1748 29.1606 71.6787 29.21 72.22V72.22Z" fill="#FAFAFA"/>
<path d="M229.85 212.58H25C24.1346 212.566 23.3055 212.23 22.6735 211.639C22.0415 211.048 21.6518 210.243 21.58 209.38L12.93 89.21C12.8915 88.7977 12.9412 88.3818 13.0757 87.9901C13.2102 87.5984 13.4265 87.2398 13.7102 86.9381C13.994 86.6364 14.3386 86.3985 14.7213 86.2402C15.104 86.0819 15.5161 86.0069 15.93 86.02H220.83C221.694 86.0319 222.524 86.3652 223.156 86.9549C223.788 87.5445 224.178 88.3485 224.25 89.21L232.91 209.38C232.948 209.798 232.895 210.219 232.757 210.614C232.618 211.01 232.396 211.372 232.107 211.675C231.817 211.978 231.465 212.216 231.076 212.372C230.687 212.528 230.269 212.599 229.85 212.58V212.58Z" fill="white"/>
<path d="M143.53 166.8L140.19 120.48L130.09 114.4H102.28L106.06 166.8H143.53Z" fill="white"/>
<path d="M143.53 167.28H106.06C105.936 167.283 105.816 167.238 105.724 167.154C105.633 167.07 105.578 166.954 105.57 166.83L101.8 114.43C101.795 114.364 101.804 114.298 101.827 114.236C101.849 114.174 101.884 114.118 101.93 114.07C101.974 114.021 102.028 113.981 102.088 113.953C102.148 113.926 102.214 113.911 102.28 113.91H130.09C130.178 113.913 130.263 113.937 130.34 113.98L140.44 120.06C140.508 120.099 140.565 120.154 140.607 120.22C140.649 120.286 140.674 120.362 140.68 120.44L144 166.76C144.007 166.827 143.999 166.896 143.976 166.96C143.954 167.024 143.918 167.082 143.87 167.13C143.826 167.177 143.774 167.214 143.715 167.24C143.657 167.266 143.594 167.279 143.53 167.28V167.28ZM106.53 166.28H143L139.72 120.73L130 114.88H102.8L106.53 166.28Z" fill="#606060"/>
<path d="M140.19 120.48L130.09 114.4L133.8 122.46L140.19 120.48Z" fill="#EBEBEB"/>
<path d="M133.8 122.94C133.708 122.939 133.617 122.913 133.54 122.863C133.462 122.814 133.4 122.743 133.36 122.66L129.65 114.6C129.607 114.505 129.594 114.4 129.614 114.297C129.634 114.195 129.685 114.102 129.76 114.03C129.839 113.962 129.938 113.921 130.042 113.912C130.146 113.903 130.25 113.927 130.34 113.98L140.44 120.06C140.521 120.109 140.587 120.18 140.63 120.265C140.672 120.35 140.69 120.445 140.68 120.54C140.667 120.632 140.628 120.719 140.568 120.789C140.508 120.86 140.429 120.912 140.34 120.94L133.94 122.94H133.8ZM131.19 115.62L134.06 121.87L139.06 120.34L131.19 115.62Z" fill="#606060"/>
<path d="M118 138C118.015 138.272 117.974 138.544 117.881 138.799C117.787 139.055 117.642 139.288 117.455 139.486C117.267 139.683 117.042 139.841 116.792 139.948C116.542 140.055 116.272 140.11 116 140.11C115.429 140.1 114.882 139.879 114.465 139.489C114.048 139.099 113.789 138.569 113.74 138C113.714 137.725 113.747 137.448 113.837 137.188C113.927 136.927 114.071 136.688 114.26 136.488C114.45 136.287 114.68 136.129 114.935 136.024C115.19 135.919 115.464 135.87 115.74 135.88C116.312 135.893 116.859 136.116 117.276 136.507C117.693 136.899 117.951 137.43 118 138Z" fill="#606060"/>
<path d="M131.7 138C131.724 138.274 131.69 138.55 131.6 138.809C131.509 139.069 131.365 139.306 131.176 139.506C130.986 139.705 130.757 139.862 130.503 139.966C130.248 140.071 129.975 140.12 129.7 140.11C129.128 140.1 128.58 139.879 128.161 139.49C127.742 139.1 127.482 138.57 127.43 138C127.414 137.727 127.453 137.454 127.546 137.198C127.64 136.941 127.784 136.706 127.972 136.508C128.159 136.309 128.385 136.151 128.636 136.043C128.887 135.935 129.157 135.88 129.43 135.88C130.004 135.888 130.555 136.11 130.974 136.502C131.394 136.893 131.653 137.428 131.7 138V138Z" fill="#606060"/>
<path d="M135.58 151.74C135.458 151.738 135.342 151.691 135.253 151.608C135.165 151.524 135.11 151.411 135.1 151.29C134.85 147.88 129.51 145.11 123.2 145.11C119.01 145.11 115.25 146.36 113.39 148.36C113.008 148.729 112.709 149.174 112.512 149.667C112.315 150.16 112.226 150.69 112.25 151.22C112.255 151.286 112.246 151.352 112.225 151.414C112.204 151.476 112.171 151.534 112.128 151.584C112.041 151.684 111.918 151.746 111.785 151.755C111.652 151.764 111.522 151.721 111.421 151.633C111.321 151.546 111.259 151.423 111.25 151.29C111.22 150.627 111.329 149.965 111.57 149.347C111.812 148.729 112.179 148.168 112.65 147.7C114.65 145.51 118.72 144.14 123.17 144.14C130.1 144.14 135.75 147.25 136.03 151.22C136.034 151.283 136.026 151.346 136.005 151.406C135.985 151.466 135.953 151.521 135.911 151.568C135.869 151.616 135.818 151.654 135.762 151.682C135.705 151.71 135.643 151.726 135.58 151.73V151.74Z" fill="#606060"/>
<path d="M110.17 133.72C110.048 133.718 109.931 133.671 109.84 133.59C109.749 133.498 109.698 133.374 109.698 133.245C109.698 133.116 109.749 132.992 109.84 132.9L111.97 130.61C112.061 130.522 112.183 130.473 112.31 130.473C112.437 130.473 112.559 130.522 112.65 130.61C112.695 130.655 112.73 130.708 112.754 130.766C112.779 130.824 112.791 130.887 112.791 130.95C112.791 131.013 112.779 131.076 112.754 131.134C112.73 131.192 112.695 131.245 112.65 131.29L110.52 133.58C110.474 133.626 110.419 133.662 110.359 133.686C110.299 133.71 110.235 133.721 110.17 133.72V133.72Z" fill="#606060"/>
<path d="M134.58 133.72C134.459 133.714 134.343 133.669 134.25 133.59L131.8 131.3C131.754 131.255 131.717 131.202 131.692 131.142C131.667 131.083 131.654 131.019 131.654 130.955C131.654 130.891 131.667 130.827 131.692 130.768C131.717 130.708 131.754 130.655 131.8 130.61C131.891 130.522 132.013 130.473 132.14 130.473C132.267 130.473 132.389 130.522 132.48 130.61L134.93 132.9C134.975 132.945 135.01 132.998 135.034 133.056C135.059 133.114 135.071 133.177 135.071 133.24C135.071 133.303 135.059 133.366 135.034 133.424C135.01 133.482 134.975 133.535 134.93 133.58C134.835 133.669 134.71 133.719 134.58 133.72V133.72Z" fill="#606060"/>
<path d="M99.26 177.15H101.52L104.78 181.49L104.47 177.15H106.75L107.31 184.99H105L101.76 180.68L102.07 184.99H99.79L99.26 177.15Z" fill="#606060"/>
<path d="M108.33 181.07C108.253 180.538 108.29 179.995 108.438 179.478C108.586 178.96 108.842 178.481 109.19 178.07C109.57 177.696 110.025 177.408 110.525 177.223C111.025 177.039 111.558 176.963 112.09 177C113.217 176.939 114.324 177.315 115.18 178.05C115.964 178.831 116.419 179.883 116.45 180.99C116.533 181.753 116.43 182.525 116.15 183.24C115.891 183.816 115.457 184.295 114.91 184.61C114.253 184.962 113.514 185.131 112.77 185.1C112.005 185.124 111.244 184.981 110.54 184.68C109.923 184.384 109.403 183.919 109.04 183.34C108.611 182.657 108.366 181.875 108.33 181.07V181.07ZM110.76 181.07C110.75 181.684 110.948 182.282 111.32 182.77C111.476 182.942 111.668 183.078 111.882 183.168C112.097 183.257 112.328 183.299 112.56 183.29C112.782 183.305 113.004 183.267 113.208 183.178C113.411 183.09 113.59 182.953 113.73 182.78C114.017 182.234 114.112 181.607 114 181C114.004 180.412 113.807 179.84 113.44 179.38C113.28 179.211 113.085 179.078 112.87 178.99C112.654 178.902 112.423 178.861 112.19 178.87C111.972 178.861 111.756 178.903 111.558 178.993C111.359 179.084 111.186 179.22 111.05 179.39C110.757 179.905 110.655 180.507 110.76 181.09V181.07Z" fill="#606060"/>
<path d="M121.15 177.15H124.75C125.343 177.131 125.935 177.23 126.49 177.44C126.929 177.624 127.32 177.908 127.63 178.27C127.945 178.637 128.186 179.062 128.34 179.52C128.502 180.012 128.603 180.523 128.64 181.04C128.717 181.694 128.666 182.356 128.49 182.99C128.352 183.429 128.108 183.828 127.78 184.15C127.506 184.44 127.161 184.654 126.78 184.77C126.315 184.905 125.834 184.979 125.35 184.99H121.76L121.15 177.15ZM123.7 178.93L124.01 183.21H124.6C124.965 183.234 125.33 183.176 125.67 183.04C125.894 182.91 126.059 182.699 126.13 182.45C126.244 182.006 126.272 181.544 126.21 181.09C126.229 180.48 126.042 179.881 125.68 179.39C125.494 179.222 125.276 179.094 125.038 179.015C124.801 178.936 124.549 178.907 124.3 178.93H123.7Z" fill="#606060"/>
<path d="M134.45 183.69H131.7L131.41 184.99H128.94L131.32 177.15H134L137.51 184.99H134.97L134.45 183.69ZM133.82 182L132.76 179.18L132.1 182H133.82Z" fill="#606060"/>
<path d="M136.37 177.15H143.73L143.87 179.09H141.4L141.82 184.99H139.4L138.98 179.09H136.51L136.37 177.15Z" fill="#606060"/>
<path d="M149.37 183.69H146.62L146.33 184.99H143.86L146.24 177.15H148.88L152.38 184.99H149.85L149.37 183.69ZM148.74 182L147.67 179.18L147 182H148.74Z" fill="#606060"/>
</svg>
