<svg width="327" height="350" viewBox="0 0 327 350" fill="none" xmlns="http://www.w3.org/2000/svg">
<path d="M327.371 348.156H18.8398V340.376C18.8398 255.313 88.0429 186.11 173.106 186.11C258.168 186.11 327.371 255.313 327.371 340.376V348.156ZM34.6138 332.596H311.593C307.552 259.716 246.977 201.67 173.106 201.67C99.2345 201.67 38.6633 259.716 34.6138 332.596Z" fill="black"/>
<path d="M173.106 177.103C125.947 177.103 87.5839 138.736 87.5839 91.5772C87.5839 44.4226 125.947 6.05556 173.106 6.05556C220.264 6.05556 258.627 44.4226 258.627 91.5772C258.627 138.736 220.264 177.103 173.106 177.103ZM173.106 21.6156C134.528 21.6156 103.144 53.0001 103.144 91.5772C103.144 130.154 134.528 161.543 173.106 161.543C211.683 161.543 243.067 130.158 243.067 91.5772C243.067 53.0001 211.683 21.6156 173.106 21.6156Z" fill="black"/>
</svg>
